# xmcd CD database file
#
# Track frame offsets:
#	150
#	19733
#	41643
#	51806
#	59014
#	61902
#	63750
#
# Disc length: 869 seconds
#
# Revision: 0
# Processed by: cddbd v1.5.2PL0 Copyright (c) Steve Scherf et al.
# Submitted via: jetAudio 7
#
DISCID=5c036307
DTITLE=不明的演唱者 - 不明的專輯
DYEAR=1900
DGENRE=不明的流派
TTITLE0=音軌 1
TTITLE1=音軌 2
TTITLE2=音軌 3
TTITLE3=音軌 4
TTITLE4=音軌 5
TTITLE5=音軌 6
TTITLE6=音軌 7
EXTD=
EXTT0=
EXTT1=
EXTT2=
EXTT3=
EXTT4=
EXTT5=
EXTT6=
PLAYORDER=
